<?xml version="1.0" standalone="no"?>
<!DOCTYPE svg PUBLIC "-//W3C//DTD SVG 20010904//EN"
 "http://www.w3.org/TR/2001/REC-SVG-20010904/DTD/svg10.dtd">
<svg version="1.0" xmlns="http://www.w3.org/2000/svg"
 width="1493.000000pt" height="1600.000000pt" viewBox="0 0 1493.000000 1600.000000"
 preserveAspectRatio="xMidYMid meet">

<g transform="translate(0.000000,1600.000000) scale(0.100000,-0.100000)"
fill="#000000" stroke="none">
<path d="M7860 15731 c-106 -23 -202 -60 -305 -115 l-80 -43 -225 -2 c-252 -1
-342 -12 -548 -67 -246 -64 -430 -147 -658 -295 -104 -68 -127 -79 -165 -79
-142 -1 -360 -63 -519 -146 -236 -124 -456 -372 -547 -616 -130 -346 -55 -660
202 -843 157 -112 433 -213 674 -245 130 -18 285 2 459 56 45 15 84 25 86 23
5 -6 78 -361 74 -363 -223 -150 -377 -328 -503 -581 -73 -147 -126 -297 -151
-430 -9 -49 -20 -98 -23 -109 -6 -15 -60 36 -299 280 l-292 298 -37 -13 c-21
-7 -155 -70 -298 -141 -363 -179 -646 -352 -984 -600 -83 -61 -111 -87 -111
-103 0 -12 67 -247 149 -522 l149 -500 -148 -145 c-81 -80 -176 -177 -212
-217 l-65 -72 -509 140 c-279 76 -514 139 -521 139 -16 0 -74 -79 -228 -310
-143 -215 -243 -388 -365 -625 -80 -158 -230 -486 -230 -505 0 -5 134 -136
297 -291 164 -155 339 -323 390 -372 l92 -89 -39 -135 c-22 -74 -55 -205 -74
-290 -19 -86 -36 -156 -38 -158 -2 -1 -232 -62 -513 -135 -280 -73 -515 -138
-522 -144 -24 -23 -47 -394 -47 -761 0 -340 7 -466 41 -761 l16 -141 521 -123
c287 -68 522 -125 524 -126 2 -1 20 -69 42 -151 21 -82 57 -214 81 -293 l44
-143 -383 -377 c-355 -350 -382 -378 -373 -401 63 -163 257 -539 399 -774 140
-231 422 -635 443 -635 6 0 155 43 332 96 177 53 407 121 511 152 l188 56 122
-125 c66 -69 163 -165 215 -213 l95 -87 -139 -507 c-76 -279 -140 -512 -142
-519 -8 -22 301 -236 585 -405 249 -148 802 -418 856 -418 8 0 179 174 381
388 202 213 371 386 377 384 5 -1 77 -22 161 -46 84 -24 211 -56 282 -71 72
-16 131 -29 132 -30 1 0 63 -234 138 -520 75 -285 138 -521 140 -523 2 -2 68
-10 147 -18 203 -21 823 -29 1028 -15 198 14 477 45 486 53 5 6 53 199 128
523 44 185 117 490 122 507 3 11 24 21 62 29 76 15 314 82 431 121 l95 31 375
-382 c207 -210 381 -382 388 -381 44 1 546 255 757 382 221 134 619 408 656
453 11 13 -10 93 -139 526 l-152 511 192 197 c106 108 202 206 213 218 l21 22
160 -44 c535 -147 860 -235 870 -235 24 0 276 375 425 630 141 242 390 759
390 809 0 9 -172 180 -385 381 -212 201 -385 369 -385 375 0 5 20 82 45 170
25 88 58 216 73 285 l28 125 516 135 c284 75 520 138 523 142 31 30 56 861 36
1168 -13 206 -41 482 -50 492 -3 4 -224 59 -491 123 -267 64 -501 120 -520
125 l-35 9 -39 153 c-21 84 -59 215 -83 291 l-44 137 381 376 c209 207 380
382 380 390 0 21 -155 348 -242 509 -150 277 -311 530 -506 796 -48 65 -93
119 -100 119 -7 0 -241 -68 -519 -151 l-505 -151 -74 73 c-72 71 -74 74 -50
82 17 6 26 18 30 42 6 29 16 39 74 71 37 21 68 41 70 45 2 5 31 28 66 53 70
50 112 104 137 178 16 49 19 51 86 78 157 60 249 134 300 238 24 50 28 69 28
147 0 109 -20 159 -92 236 -80 86 -173 119 -280 100 -73 -14 -198 -75 -286
-142 l-69 -52 -44 21 c-25 12 -62 22 -83 22 l-38 0 33 122 c19 68 34 130 34
139 0 26 -266 211 -530 369 -85 51 -157 94 -158 96 -2 1 -12 46 -23 100 -84
436 -366 836 -724 1030 -38 20 -71 38 -73 39 -3 3 56 175 98 285 l33 86 64 -4
c196 -13 548 76 732 185 90 54 189 163 239 265 60 121 75 190 76 343 1 110 -3
141 -23 205 -31 100 -47 131 -155 295 -51 77 -114 172 -140 212 -62 95 -152
175 -251 223 -123 60 -186 73 -385 79 l-175 6 -60 36 c-139 84 -303 143 -491
175 -132 22 -395 15 -594 -17 -80 -13 -158 -23 -175 -23 -16 0 -93 18 -170 39
-134 36 -147 38 -325 41 -153 3 -200 1 -270 -15z m585 -67 c77 -21 158 -38
180 -38 22 1 105 11 185 24 118 19 184 24 355 24 207 1 212 1 339 -33 161 -42
225 -67 345 -135 l96 -54 175 -5 c192 -5 245 -16 368 -73 92 -42 196 -143 267
-259 27 -44 66 -102 86 -130 69 -94 138 -220 166 -300 24 -71 27 -95 27 -205
0 -213 -53 -349 -189 -486 -67 -69 -95 -89 -175 -127 -183 -87 -386 -136 -602
-144 l-137 -6 -60 -161 c-32 -89 -66 -184 -74 -211 l-15 -51 83 -43 c240 -126
457 -355 592 -626 57 -113 116 -287 133 -390 7 -39 14 -80 16 -92 3 -15 45
-46 151 -109 171 -101 476 -302 536 -354 4 -4 -8 -65 -28 -136 -47 -172 -47
-170 14 -166 34 3 64 -3 96 -17 26 -12 56 -21 66 -21 10 0 51 25 91 55 115 88
207 129 295 134 102 5 147 -14 217 -90 82 -88 105 -184 71 -295 -33 -108 -124
-188 -290 -255 l-90 -36 -20 -59 c-11 -32 -31 -74 -45 -92 -29 -39 -150 -134
-234 -182 -46 -27 -63 -43 -70 -68 -5 -17 -17 -34 -27 -37 -23 -8 -33 -39 -20
-62 15 -28 169 -175 178 -170 4 3 215 66 468 141 253 76 479 144 503 151 l42
14 73 -97 c148 -196 317 -454 453 -693 57 -100 257 -503 275 -552 l13 -38
-379 -379 -379 -379 49 -158 c26 -87 65 -225 86 -308 36 -145 38 -150 68 -163
18 -7 145 -39 284 -72 139 -34 320 -77 402 -96 83 -20 191 -46 240 -58 l90
-22 16 -131 c27 -213 39 -441 39 -743 0 -255 -20 -641 -36 -706 -4 -17 -16
-27 -43 -34 -186 -49 -485 -128 -666 -174 -329 -86 -325 -84 -335 -109 -5 -12
-21 -74 -34 -137 -14 -63 -47 -190 -73 -283 -36 -128 -45 -173 -37 -191 5 -13
155 -162 334 -331 179 -169 348 -330 377 -359 l52 -51 -38 -90 c-117 -277
-270 -572 -431 -835 -82 -134 -254 -391 -295 -441 l-21 -26 -510 139 c-280 76
-514 137 -519 136 -6 -2 -112 -106 -236 -233 l-226 -230 138 -465 c77 -256
146 -487 154 -513 l14 -48 -122 -91 c-145 -107 -383 -266 -558 -372 -126 -75
-486 -261 -626 -323 l-72 -32 -374 380 c-216 219 -382 379 -392 379 -10 0 -66
-15 -124 -34 -58 -19 -176 -53 -261 -76 -242 -65 -233 -61 -242 -95 -4 -16
-55 -228 -113 -470 -58 -242 -111 -462 -118 -490 -14 -59 3 -54 -272 -81 -232
-23 -904 -26 -1157 -5 -92 8 -171 17 -177 20 -5 3 -48 155 -95 336 -129 497
-182 694 -188 700 -2 3 -72 20 -154 39 -119 27 -361 92 -455 122 -12 3 -99
-82 -305 -298 -159 -167 -327 -342 -374 -391 l-85 -87 -175 78 c-290 131 -530
257 -775 410 -183 114 -435 290 -435 303 0 4 63 238 140 519 l139 511 -72 66
c-40 37 -145 140 -234 229 l-161 163 -64 -18 c-93 -28 -276 -82 -623 -186
-170 -51 -317 -95 -326 -97 -35 -7 -290 358 -493 707 -93 160 -314 596 -330
651 -6 18 50 77 349 370 196 192 367 363 380 380 l24 31 -43 139 c-24 77 -63
215 -87 307 -35 139 -46 170 -63 177 -12 5 -244 61 -516 125 -272 64 -498 120
-502 123 -11 11 -26 120 -44 322 -24 260 -24 847 0 1095 10 99 19 181 20 182
3 3 136 38 728 193 l316 83 7 46 c9 59 108 452 129 510 9 24 16 51 16 61 0 9
-171 180 -385 384 -212 202 -385 372 -385 377 0 46 290 628 423 849 182 304
351 543 376 536 321 -93 1002 -277 1014 -274 7 2 61 56 120 120 59 64 160 167
224 228 l117 110 -114 383 c-62 210 -130 440 -151 512 -22 71 -39 132 -39 135
0 13 304 230 480 342 251 159 554 323 796 431 l101 45 319 -320 319 -320 11
104 c30 268 150 552 339 803 73 96 218 230 304 281 19 11 31 27 31 39 0 11
-18 105 -40 209 -22 104 -40 193 -40 198 0 14 -34 9 -106 -16 -216 -75 -427
-89 -617 -40 -370 95 -595 231 -689 417 -152 303 -37 713 284 1012 138 127
241 188 434 255 99 35 138 43 236 50 129 9 121 6 256 96 197 131 412 228 643
289 218 57 307 68 559 69 l225 1 65 37 c88 50 205 96 304 119 68 16 110 18
261 15 171 -4 187 -6 320 -42z"/>
<path d="M7895 15524 c-97 -23 -188 -62 -285 -120 l-91 -55 -117 11 c-142 14
-386 0 -537 -31 -233 -48 -486 -154 -707 -297 -174 -112 -167 -109 -313 -120
-137 -11 -246 -42 -376 -107 -257 -129 -481 -438 -504 -695 -20 -229 68 -373
297 -485 62 -30 169 -71 238 -91 111 -32 141 -37 265 -41 127 -4 150 -2 240
21 61 16 150 51 232 90 73 36 135 62 137 58 9 -15 47 -173 105 -442 33 -151
62 -287 66 -301 6 -25 1 -30 -82 -77 -281 -161 -480 -441 -590 -828 -26 -94
-28 -110 -28 -304 0 -187 2 -211 23 -280 55 -176 157 -317 281 -390 39 -22 74
-51 85 -70 58 -101 126 -142 223 -139 l65 2 34 -88 c19 -48 55 -118 79 -155
158 -238 516 -423 946 -490 l75 -12 -3 -32 c-9 -75 -11 -78 -46 -70 -72 17
-112 1 -517 -200 -297 -148 -699 -332 -910 -417 -136 -55 -150 -64 -150 -101
0 -16 27 -93 59 -171 52 -125 181 -504 181 -532 0 -6 -12 -28 -26 -49 -53 -77
-18 -136 81 -136 29 0 66 5 81 10 15 6 28 9 29 8 2 -2 6 -24 10 -50 l7 -47
-43 -21 c-70 -36 -127 -88 -182 -166 -28 -40 -54 -71 -59 -68 -11 7 -10 58 4
125 13 65 2 92 -36 87 -26 -4 -82 -85 -97 -141 -16 -58 -6 -189 18 -229 27
-49 119 -91 210 -96 84 -5 131 9 179 50 l34 30 -1 -243 c-1 -215 1 -244 16
-255 74 -55 782 -97 1055 -64 242 30 503 104 706 200 102 48 316 181 343 213
9 11 9 30 1 78 -14 90 -12 219 5 324 29 178 97 371 288 817 57 134 110 260
117 281 6 21 18 41 26 44 34 13 271 -83 614 -247 392 -188 530 -240 646 -243
65 -1 91 15 150 95 103 140 218 374 358 728 43 107 95 226 117 265 39 71 51
136 29 150 -6 4 -8 10 -6 14 3 4 10 55 17 113 l12 107 44 28 c59 37 146 170
175 265 10 34 22 45 102 92 50 30 126 79 168 111 83 60 80 54 117 200 10 40
13 42 83 64 111 35 209 85 252 130 32 33 40 48 44 90 4 50 3 52 -42 97 -43 43
-48 46 -83 39 -72 -13 -199 -93 -305 -193 l-48 -45 -90 42 c-50 22 -95 41 -99
41 -5 0 -80 -45 -168 -101 -158 -101 -431 -242 -618 -319 -98 -41 -279 -111
-545 -212 -74 -28 -160 -63 -190 -77 -52 -26 -55 -29 -85 -105 -16 -43 -39
-85 -50 -92 -11 -7 -94 -31 -185 -54 -176 -44 -241 -68 -277 -102 -31 -29 -30
-78 2 -116 38 -45 73 -55 177 -50 106 5 154 22 283 106 l78 51 41 -24 c23 -13
73 -36 111 -51 60 -22 80 -25 140 -21 129 11 296 66 498 168 107 53 117 56
117 34 0 -7 8 -18 18 -24 14 -8 15 -13 5 -28 -55 -79 -100 -185 -203 -479 -79
-226 -165 -440 -180 -449 -14 -8 -447 214 -750 385 -157 88 -344 190 -416 226
-124 63 -134 66 -205 67 -41 1 -82 -3 -92 -9 -17 -10 -188 26 -344 72 -59 17
-58 16 -67 65 l-6 36 142 47 c79 26 212 81 296 122 l153 74 42 -30 c57 -40
155 -64 231 -56 70 7 192 55 301 116 93 53 251 204 313 298 80 123 108 254 69
328 l-16 31 82 59 c105 75 218 183 272 259 223 314 242 766 50 1172 -65 137
-144 253 -246 358 -126 130 -248 212 -404 270 -56 21 -60 25 -63 56 -4 53 39
205 130 454 l83 230 225 6 c201 5 235 9 320 32 234 65 352 135 430 257 63 99
93 257 70 379 -16 87 -56 164 -198 377 -157 237 -199 273 -360 315 -64 17
-103 20 -232 17 l-155 -3 -100 57 c-160 92 -311 146 -467 169 -156 23 -543 -6
-673 -49 -43 -15 -55 -15 -90 -4 -111 37 -248 72 -318 81 -108 15 -300 12
-372 -5z m376 -100 c123 -21 285 -70 494 -151 277 -107 302 -114 317 -96 10
13 9 18 -7 30 -34 25 -214 124 -293 161 l-77 36 40 8 c22 5 146 11 275 14 311
8 397 -8 678 -127 110 -46 111 -48 20 -64 -26 -4 -38 -11 -38 -22 0 -13 9 -15
58 -9 193 25 400 25 494 0 156 -40 221 -93 320 -260 36 -60 94 -156 130 -214
79 -130 103 -200 103 -300 0 -65 -5 -85 -33 -142 -59 -119 -186 -216 -375
-283 -129 -46 -210 -57 -390 -53 l-156 3 6 25 c3 14 13 33 21 43 14 16 13 17
-11 17 -41 0 -167 -27 -232 -49 -260 -90 -542 -124 -705 -85 -35 8 -130 46
-210 83 -170 81 -231 102 -300 104 -27 1 -50 3 -50 5 0 11 253 187 310 216
l73 36 -55 0 c-61 0 -77 -10 -373 -225 -296 -215 -465 -311 -625 -354 -205
-56 -515 -88 -691 -72 -161 15 -227 35 -387 114 -138 68 -147 71 -229 75 -95
5 -211 -11 -240 -34 -16 -13 -11 -14 48 -8 85 8 199 -10 269 -43 l55 -25 -90
-23 c-49 -13 -148 -48 -219 -80 -71 -31 -170 -68 -219 -82 -80 -23 -101 -25
-201 -20 -137 7 -225 31 -374 102 -216 103 -303 182 -339 304 -33 115 5 293
98 458 56 99 196 242 299 306 121 74 160 80 535 81 344 1 425 10 425 46 0 10
-10 20 -22 23 -25 6 -214 26 -288 30 l-45 2 155 76 c261 128 434 191 664 241
85 19 135 23 314 24 l213 1 -35 -29 c-38 -31 -166 -192 -166 -208 0 -31 59 8
200 130 109 96 258 185 390 234 126 47 305 58 471 30z m187 -1420 c42 -14 104
-40 137 -59 247 -137 378 -169 595 -145 172 19 335 67 569 167 11 5 13 2 6
-13 -4 -10 -54 -155 -111 -321 -66 -196 -108 -337 -119 -400 -32 -194 -58
-243 -138 -263 -23 -6 -154 -42 -292 -80 -232 -64 -332 -86 -555 -125 -91 -16
-599 -68 -844 -86 -82 -6 -242 -9 -355 -7 -197 5 -321 19 -589 70 -101 19
-124 56 -192 323 -53 205 -134 489 -160 557 -23 62 -22 64 67 103 l61 27 68
-41 c91 -55 166 -77 310 -91 183 -19 403 1 639 56 239 57 448 155 639 300 67
51 74 54 129 54 37 0 87 -10 135 -26z m1270 -955 c186 -107 255 -170 387 -354
184 -258 282 -576 254 -825 -12 -101 -52 -279 -79 -354 -43 -114 -165 -253
-334 -380 -73 -54 -203 -136 -218 -136 -4 0 8 20 27 45 81 106 87 266 14 350
-81 92 -204 79 -281 -31 -18 -25 -34 -41 -36 -36 -1 5 -98 99 -215 208 -259
242 -306 290 -412 424 -224 285 -343 515 -348 677 l-2 57 120 18 c262 39 566
109 782 179 103 34 127 45 147 72 24 32 56 114 56 143 0 21 8 17 138 -57z
m-3154 -235 c10 -40 52 -98 86 -117 16 -10 71 -24 122 -32 51 -8 143 -26 203
-40 141 -33 346 -42 585 -26 166 11 695 64 770 77 l35 6 -20 -22 c-38 -43
-293 -228 -401 -292 -358 -212 -632 -341 -939 -443 -207 -68 -334 -134 -415
-214 -42 -42 -77 -88 -96 -126 -25 -53 -29 -71 -29 -157 0 -54 -1 -98 -1 -98
-1 0 -15 7 -30 15 -38 19 -97 19 -139 -1 -60 -28 -115 -134 -115 -221 0 -42
-1 -43 -22 -32 -38 20 -124 114 -156 171 -148 258 -131 691 41 1033 52 104
144 238 204 297 68 67 297 256 304 252 4 -2 10 -15 13 -30z m1849 -254 c18
-161 110 -333 322 -605 152 -195 227 -275 378 -402 188 -158 278 -243 271
-254 -2 -5 2 -57 11 -116 32 -210 -3 -348 -132 -516 -125 -163 -457 -371 -735
-462 -476 -154 -957 -117 -1423 110 -164 80 -242 130 -328 214 -169 162 -245
344 -254 611 -3 74 -7 169 -10 210 -3 42 0 99 7 130 31 137 132 266 256 326
90 43 303 120 287 103 -18 -18 -16 -49 2 -49 8 0 15 4 15 10 0 5 13 7 30 4 34
-7 51 16 30 41 -7 9 -11 17 -9 19 2 2 67 23 144 46 169 51 288 97 416 161 256
128 498 288 619 409 47 47 88 81 91 75 4 -5 9 -35 12 -65z m1293 -1205 c99
-65 58 -284 -66 -354 -23 -13 -65 -24 -104 -28 l-66 -6 0 38 c0 29 7 44 34 71
21 21 44 34 59 34 29 0 57 23 57 47 0 13 -9 15 -46 10 -34 -3 -54 -13 -80 -38
l-34 -33 0 31 c0 18 7 38 15 47 8 8 15 26 15 41 0 25 26 83 53 117 38 48 110
58 163 23z m2172 -48 c35 -37 43 -80 24 -119 -24 -48 -95 -90 -213 -128 -133
-42 -150 -59 -167 -162 -8 -43 -17 -78 -21 -78 -14 0 -110 137 -146 210 -47
94 -65 121 -76 115 -25 -16 75 -211 153 -300 33 -38 38 -49 27 -56 -8 -5 -69
-43 -136 -84 -122 -74 -123 -74 -123 -47 0 15 -17 52 -38 82 -29 43 -44 56
-67 58 -47 6 -154 -29 -181 -59 -9 -10 -30 -19 -45 -19 -15 0 -41 -12 -58 -26
-17 -14 -47 -28 -68 -31 -51 -8 -83 -30 -83 -57 0 -38 29 -121 55 -160 14 -21
23 -41 20 -46 -3 -5 -22 -14 -43 -20 -20 -6 -48 -24 -62 -40 -50 -55 -355
-193 -535 -241 l-110 -29 -25 32 c-14 18 -48 57 -75 88 -90 98 -171 240 -149
259 5 4 99 40 209 80 610 222 899 356 1191 552 l135 90 82 -31 c45 -18 89 -36
99 -40 19 -11 67 21 174 116 126 113 205 141 252 91z m-5458 -22 c15 -8 39
-28 52 -44 20 -27 23 -39 20 -110 l-3 -80 -31 35 c-31 35 -64 44 -86 22 -18
-18 -14 -28 11 -28 18 0 28 -10 43 -42 10 -23 32 -55 47 -71 39 -40 35 -87 -7
-98 -93 -25 -226 127 -226 259 0 130 86 206 180 157z m3450 -329 c0 -115 -63
-230 -205 -372 -185 -187 -395 -273 -559 -229 -95 25 -95 25 -14 87 133 103
227 210 333 382 6 8 51 27 100 41 50 14 144 52 210 84 66 32 123 56 128 54 4
-2 7 -23 7 -47z m1248 -203 c30 -44 45 -101 38 -150 -9 -69 -66 -193 -109
-240 -49 -53 -138 -98 -235 -118 -100 -20 -144 -19 -172 5 -43 38 -4 89 96
124 50 17 52 34 14 128 -34 85 -37 110 -16 128 23 19 66 -8 105 -65 34 -50 34
-50 27 -15 -3 19 -18 46 -31 60 -42 44 -26 80 29 66 32 -8 67 -57 82 -115 l13
-46 0 42 c1 24 -8 66 -19 95 -22 58 -15 78 26 78 28 0 50 -30 59 -82 4 -21 13
-42 21 -49 12 -9 14 -5 14 24 0 19 -7 51 -15 72 -23 54 -11 79 42 84 6 0 20
-11 31 -26z m-1349 -472 c22 -32 67 -93 100 -134 69 -87 69 -87 -77 -15 -68
34 -87 40 -100 30 -62 -43 -222 -127 -273 -143 -111 -35 -192 -19 -234 45 -39
60 11 90 235 140 211 46 239 60 270 125 21 46 25 50 32 32 4 -12 25 -48 47
-80z m1146 -59 c-3 -11 -12 -54 -20 -96 -8 -43 -18 -83 -21 -88 -9 -15 -89 -4
-119 16 -22 14 -25 24 -25 74 0 31 5 64 10 72 5 9 38 19 82 26 104 16 100 16
93 -4z m-225 -185 c27 -33 76 -57 114 -57 33 0 73 -19 81 -38 3 -8 -9 -42 -26
-75 -17 -33 -66 -148 -109 -256 -152 -383 -285 -655 -356 -728 -46 -49 -54
-53 -97 -53 -70 0 -301 89 -712 275 -264 120 -300 134 -455 176 -80 22 -153
42 -162 45 -24 8 -23 -13 1 -27 17 -11 11 -27 -90 -233 -217 -446 -333 -758
-366 -993 -15 -100 -15 -123 -2 -219 l15 -106 -41 -33 c-65 -53 -180 -124
-260 -160 -63 -29 -238 -95 -251 -95 -9 0 -3 119 12 219 52 351 195 723 398
1036 29 44 117 172 196 285 184 262 220 330 220 412 0 60 -1 62 -49 107 -58
55 -206 150 -509 327 -40 23 -69 45 -63 48 6 4 8 13 5 21 -4 8 -10 13 -14 10
-5 -3 -5 7 -1 22 4 16 6 38 5 50 -1 12 2 20 7 18 12 -8 64 28 64 44 0 8 6 16
13 19 7 2 10 -2 6 -11 -4 -12 0 -14 16 -10 12 3 24 12 27 19 4 11 8 11 20 -1
21 -21 9 -45 -42 -88 -92 -77 -80 -107 18 -42 l66 43 38 -19 c58 -28 210 -69
280 -76 l62 -6 3 -41 c3 -46 21 -55 26 -13 2 16 14 34 28 44 62 40 195 -21
834 -385 271 -154 387 -213 513 -257 79 -28 79 -28 72 -59 -21 -102 -10 -193
24 -204 11 -4 12 5 7 41 -9 57 4 106 59 227 23 52 89 232 145 400 56 168 118
343 138 389 35 83 36 84 51 61 9 -14 27 -37 41 -53z m-2887 2 c34 -5 82 -9
107 -9 57 0 107 -30 126 -75 35 -86 88 -128 319 -261 228 -130 356 -214 385
-252 38 -48 8 -114 -135 -306 -221 -298 -380 -558 -473 -776 -122 -286 -192
-556 -217 -842 l-7 -77 -70 -16 c-339 -77 -817 -78 -1255 -4 l-63 11 -2 82
c-8 278 18 479 99 766 88 311 250 641 461 935 85 117 122 163 265 323 65 72
113 132 108 132 -6 0 -42 -30 -81 -66 -39 -37 -73 -65 -75 -62 -3 2 2 26 11
51 9 26 14 52 12 59 -6 16 -64 -83 -79 -133 l-11 -37 -152 -32 c-225 -48 -553
-149 -676 -209 -62 -30 -65 -31 -97 -16 -33 16 -73 13 -73 -6 0 -5 10 -9 23
-9 84 0 274 -378 305 -604 10 -78 8 -81 -90 -126 -83 -37 -164 -48 -193 -26
-20 15 -20 15 2 58 l23 43 -40 145 c-57 203 -106 350 -153 454 -60 136 -74
120 233 262 279 129 348 159 738 323 393 165 420 175 489 186 41 6 45 4 148
-74 103 -79 135 -95 135 -68 0 21 -51 86 -107 139 -46 43 -51 51 -55 101 l-4
54 28 -14 c15 -8 56 -19 91 -24z m407 21 c0 -5 -5 -10 -11 -10 -5 0 -7 5 -4
10 3 6 8 10 11 10 2 0 4 -4 4 -10z m-67 -15 c-3 -9 -8 -14 -10 -11 -3 3 -2 9
2 15 9 16 15 13 8 -4z m-28 -15 c-3 -4 0 -11 5 -13 6 -3 5 -4 -2 -3 -7 1 -15
11 -16 21 -3 11 0 15 7 10 6 -3 9 -10 6 -15z m-25 -11 c7 -11 9 -23 6 -27 -3
-3 -6 0 -6 6 0 6 -7 18 -16 26 -8 9 -11 16 -5 16 6 0 15 -9 21 -21z m70 -19
c0 -11 -7 -20 -15 -20 -13 0 -14 4 -5 20 6 11 13 20 15 20 3 0 5 -9 5 -20z
m-6 -54 c-3 -7 -12 -13 -21 -13 -14 0 -14 1 1 12 8 7 12 16 8 20 -4 5 -2 5 5
1 7 -4 10 -12 7 -20z m-1043 -607 c-174 -197 -339 -443 -433 -648 -37 -78 -52
-100 -69 -101 -4 0 -14 40 -23 89 -31 171 -122 393 -192 471 l-36 39 29 6 c15
3 123 37 238 75 116 37 278 87 360 110 83 23 155 43 160 45 47 16 40 -2 -34
-86z m-530 -894 c-10 -33 -24 -86 -32 -118 -15 -69 -24 -64 -61 29 l-24 60 49
30 c26 16 56 37 64 47 9 9 18 16 19 14 2 -2 -5 -30 -15 -62z m-76 -215 c3 -5
-8 -67 -26 -137 -17 -71 -32 -146 -34 -168 -2 -32 -9 -44 -31 -57 -40 -25 -49
-22 -30 7 19 29 14 47 -11 38 -9 -3 -38 -21 -65 -40 -28 -18 -59 -33 -71 -33
-20 0 -20 1 5 28 51 56 73 102 47 102 -6 0 -34 -20 -62 -46 -40 -36 -56 -44
-81 -42 -70 7 -107 184 -57 273 12 22 19 31 15 20 -17 -53 -16 -105 6 -169 13
-39 27 -66 36 -66 7 0 35 33 62 73 27 39 70 95 94 122 66 73 183 128 203 95z"/>
<path d="M8560 12042 c-19 -9 -37 -25 -38 -36 -4 -16 0 -18 33 -12 29 6 40 4
50 -11 11 -14 18 -16 32 -7 26 16 27 40 4 63 -25 25 -36 26 -81 3z"/>
<path d="M8479 11859 c-104 -111 -63 -439 55 -439 79 0 136 146 115 296 -11
78 -24 112 -57 147 -36 37 -75 36 -113 -4z m128 -71 c32 -41 19 -138 -18 -138
-36 0 -52 87 -23 128 17 25 27 27 41 10z"/>
<path d="M7079 11819 c-45 -45 -64 -107 -64 -214 1 -83 5 -109 24 -153 39 -86
94 -107 144 -54 43 45 60 105 61 212 1 98 -19 166 -61 212 -22 25 -78 23 -104
-3z m125 -91 c29 -42 13 -128 -23 -128 -31 0 -46 68 -27 115 17 41 29 44 50
13z"/>
<path d="M7653 11339 c-40 -12 -106 -86 -121 -137 -7 -22 -12 -63 -12 -91 0
-46 4 -56 41 -96 68 -74 198 -107 283 -71 42 18 116 83 116 103 0 10 -10 7
-32 -13 -72 -60 -144 -69 -226 -28 -98 49 -137 121 -112 210 25 90 102 118
186 69 47 -28 67 -18 33 16 -24 24 -80 49 -106 48 -10 0 -32 -5 -50 -10z"/>
<path d="M8430 10853 c-86 -113 -293 -222 -550 -289 -135 -36 -354 -44 -458
-16 l-72 19 22 -25 c34 -35 131 -82 207 -98 89 -19 265 -18 354 2 40 8 119 38
176 66 89 43 116 62 191 136 48 48 98 107 111 132 31 59 49 100 44 100 -2 0
-13 -12 -25 -27z"/>
<path d="M11240 11066 c0 -17 39 -66 40 -49 0 18 -22 63 -32 63 -4 0 -8 -6 -8
-14z"/>
<path d="M11170 11022 c0 -11 22 -32 32 -32 5 0 4 9 -2 20 -11 20 -30 28 -30
12z"/>
<path d="M11045 10950 c3 -5 11 -10 16 -10 6 0 7 5 4 10 -3 6 -11 10 -16 10
-6 0 -7 -4 -4 -10z"/>
<path d="M10046 10505 c-3 -8 -1 -15 4 -15 6 0 10 7 10 15 0 8 -2 15 -4 15 -2
0 -6 -7 -10 -15z"/>
<path d="M9937 10473 c-12 -11 -8 -40 7 -52 12 -10 14 -6 14 24 0 33 -7 43
-21 28z"/>
<path d="M9840 10418 c0 -27 35 -88 50 -88 5 0 1 23 -10 50 -11 28 -20 53 -20
55 0 3 -4 5 -10 5 -5 0 -10 -10 -10 -22z"/>
<path d="M8083 9770 c-25 -10 -63 -66 -63 -92 0 -26 36 -58 64 -58 34 0 75 38
82 77 5 25 1 37 -19 57 -28 28 -31 29 -64 16z"/>
<path d="M8547 9439 c-31 -18 -48 -72 -36 -108 30 -86 149 -58 149 34 0 65
-61 104 -113 74z"/>
<path d="M8136 8759 c-87 -68 -57 -175 38 -135 67 28 87 98 40 135 -33 26 -45
26 -78 0z"/>
<path d="M7817 8009 c-45 -26 -64 -129 -28 -149 33 -17 63 -11 93 17 66 63 11
176 -65 132z"/>
<path d="M4730 7507 c-37 -12 -75 -47 -206 -194 -91 -103 -147 -202 -252 -448
-150 -354 -210 -611 -200 -867 4 -101 10 -137 32 -198 15 -41 50 -140 77 -220
61 -181 117 -294 172 -349 45 -46 173 -130 297 -194 72 -38 77 -39 160 -35
122 4 147 20 247 153 87 115 91 121 179 314 56 124 76 198 114 429 7 40 14 71
17 68 3 -2 13 -46 23 -98 25 -126 90 -385 138 -543 75 -246 115 -329 193 -399
56 -51 77 -48 129 22 71 95 141 264 189 455 l27 108 58 -188 c72 -236 109
-314 186 -387 39 -37 64 -54 74 -50 28 11 97 106 136 189 21 44 57 139 81 210
43 128 44 132 44 265 -1 159 -15 225 -76 347 -49 98 -124 183 -197 222 l-53
28 48 28 c26 16 108 69 181 118 73 49 134 88 136 86 2 -2 -1 -62 -6 -134 -5
-71 -8 -195 -6 -275 3 -138 4 -147 32 -197 33 -60 73 -84 144 -85 48 -1 98 18
130 50 10 9 48 39 86 66 64 46 134 132 151 187 9 29 22 23 35 -15 25 -76 191
-179 285 -178 123 2 223 73 362 258 l22 29 0 -95 c1 -100 20 -193 47 -235 25
-38 79 -67 127 -67 66 -1 115 26 261 144 49 40 103 123 141 218 l30 75 12
-120 c37 -348 73 -445 167 -445 34 0 48 6 71 30 33 34 32 21 17 338 l-10 224
24 54 c48 109 133 224 165 224 21 0 49 -49 63 -109 17 -76 22 -131 36 -331 11
-172 29 -239 70 -274 27 -23 86 -46 116 -46 7 0 43 31 82 68 51 51 83 94 123
168 l54 99 5 -107 c5 -115 15 -138 74 -182 21 -17 41 -21 90 -20 111 3 216 70
298 193 22 32 38 47 41 39 3 -7 23 -56 45 -109 79 -193 119 -229 238 -214 55
7 62 11 132 78 178 173 274 368 287 586 l6 86 -39 -105 c-97 -263 -130 -319
-274 -467 -106 -109 -126 -101 -179 69 -27 85 -29 104 -30 258 0 295 -13 483
-36 526 -64 124 -215 138 -272 26 -15 -29 -29 -41 -58 -50 -64 -20 -102 -49
-143 -113 -56 -87 -141 -257 -189 -377 -58 -146 -83 -190 -137 -251 -46 -51
-109 -90 -122 -76 -14 14 -13 148 2 289 26 247 20 351 -29 461 -34 76 -55 90
-134 90 -96 -1 -117 -16 -204 -147 -41 -62 -80 -124 -87 -136 -6 -13 -14 -22
-16 -19 -3 3 -9 44 -14 91 -15 143 -57 200 -148 200 -57 0 -103 -28 -129 -77
-20 -39 -20 -136 2 -261 17 -97 13 -117 -54 -231 -93 -160 -265 -270 -326
-208 -22 21 -17 55 46 308 70 283 69 348 -7 419 -52 47 -136 41 -189 -14 l-30
-31 -3 -166 -3 -166 -58 -71 c-67 -81 -157 -141 -230 -152 -38 -6 -54 -3 -97
20 -35 19 -58 38 -68 61 -22 46 -71 450 -61 510 17 116 116 128 209 25 67 -75
74 -139 24 -230 -33 -60 -33 -84 1 -93 35 -9 51 14 62 87 31 194 -41 338 -176
354 -157 17 -252 -132 -300 -472 -19 -134 -26 -154 -81 -232 -76 -109 -167
-173 -245 -174 -76 0 -76 38 1 337 59 227 65 308 28 363 -38 55 -73 75 -129
73 -83 -2 -124 -46 -136 -144 l-6 -49 -86 -50 c-114 -67 -285 -151 -325 -160
-31 -7 -32 -6 -28 17 3 14 44 85 93 159 133 204 170 317 184 559 l7 120 -55
53 c-59 58 -119 82 -211 82 -46 0 -51 -3 -105 -58 -121 -124 -175 -298 -212
-677 -7 -78 -17 -126 -26 -137 -27 -30 -258 -136 -271 -124 -10 11 21 73 79
158 82 121 144 253 175 373 21 86 25 117 22 224 l-3 123 -45 41 c-58 51 -96
67 -180 74 l-68 6 -53 -49 c-78 -73 -122 -148 -154 -263 -16 -56 -29 -100 -31
-98 -1 1 -18 52 -38 112 -44 131 -101 231 -172 302 -46 46 -63 55 -141 79
l-90 28 5 71 4 71 -41 37 c-36 32 -47 37 -89 36 -26 -1 -63 -6 -82 -12z m258
-307 c114 -19 189 -92 218 -213 23 -95 31 -449 14 -641 -31 -371 -108 -662
-222 -843 -60 -94 -150 -163 -214 -163 -41 0 -100 69 -170 201 -60 110 -62
118 -83 254 -41 268 -50 474 -31 676 17 175 64 272 255 524 75 99 138 190 142
203 4 16 10 21 22 17 9 -4 40 -11 69 -15z m786 -143 c23 -23 47 -61 54 -84 17
-56 15 -179 -4 -244 -28 -97 -218 -439 -244 -439 -5 0 -7 12 -5 28 3 15 12
101 20 192 9 91 18 181 21 200 3 19 11 108 18 197 8 101 17 168 25 177 25 30
71 20 115 -27z m576 21 c19 -13 45 -45 59 -73 23 -44 26 -61 25 -150 -1 -77
-6 -113 -22 -155 -24 -61 -180 -347 -212 -387 l-20 -26 0 57 c0 31 9 137 19
234 11 97 25 247 31 332 10 136 14 157 32 173 27 23 48 22 88 -5z m3557 -603
c6 -38 24 -133 38 -210 43 -225 45 -197 -27 -305 -112 -169 -171 -213 -202
-152 -30 59 -49 181 -43 281 16 257 104 468 192 459 29 -3 30 -6 42 -73z
m-3967 -405 c11 -52 23 -106 26 -120 5 -17 -7 -8 -38 32 -54 69 -131 134 -176
149 l-33 11 93 57 93 58 8 -46 c5 -25 17 -89 27 -141z m-184 6 c61 -29 79 -49
142 -174 67 -130 82 -186 89 -322 9 -190 -27 -329 -105 -404 l-40 -39 -21 69
c-53 183 -74 264 -115 444 -24 107 -57 245 -72 306 -15 61 -25 118 -21 127 10
25 82 22 143 -7z m614 -7 c62 -35 156 -200 191 -337 35 -140 20 -393 -31 -492
-25 -47 -85 -105 -95 -90 -12 19 -63 203 -101 365 -20 82 -59 242 -86 353 -27
112 -47 211 -44 219 9 23 113 12 166 -18z"/>
<path d="M6770 6947 c-33 -17 -50 -53 -50 -110 0 -40 5 -53 29 -78 43 -42 89
-40 130 6 50 58 36 146 -29 180 -35 18 -47 19 -80 2z"/>
<path d="M8030 6946 c-27 -8 -37 -19 -45 -46 -5 -19 -14 -40 -18 -47 -11 -18
16 -76 48 -101 53 -42 122 -17 145 54 10 30 9 43 -5 80 -9 24 -21 46 -26 50
-27 16 -68 20 -99 10z"/>
<path d="M7389 5657 c-62 -18 -123 -55 -232 -142 l-92 -74 -29 69 c-15 38 -45
88 -64 111 -35 41 -37 41 -86 35 -59 -7 -106 -40 -153 -110 -31 -46 -33 -53
-33 -141 0 -98 8 -195 40 -470 17 -147 20 -256 24 -820 5 -712 7 -746 61 -792
32 -28 90 -31 124 -6 29 20 92 153 121 253 13 49 25 131 31 235 9 127 17 179
40 255 49 161 59 235 59 438 0 197 -12 307 -55 537 -14 77 -32 172 -39 212
l-13 72 41 40 c23 22 72 56 110 76 82 43 112 42 206 -5 120 -61 280 -309 280
-435 0 -47 -37 -94 -120 -153 -137 -96 -179 -131 -209 -173 -67 -92 -98 -239
-68 -321 8 -24 18 -54 21 -68 8 -39 58 -63 130 -62 74 0 140 24 224 81 34 23
62 40 62 38 0 -1 -9 -45 -21 -97 -27 -123 -30 -261 -5 -311 29 -62 59 -82 125
-87 115 -8 219 50 306 173 26 36 49 64 51 63 2 -2 23 -52 47 -110 56 -134 101
-206 136 -215 14 -5 52 -7 84 -6 72 2 110 25 198 125 107 120 138 173 218 373
6 15 22 -17 70 -138 65 -164 91 -260 91 -338 0 -92 -80 -199 -149 -199 -53 0
-101 58 -101 122 0 54 51 148 109 200 28 26 48 49 44 51 -17 10 -103 -21 -149
-54 -27 -19 -64 -57 -81 -83 -28 -41 -33 -57 -33 -106 0 -69 29 -130 84 -174
33 -27 47 -31 112 -34 72 -4 78 -3 167 42 125 62 202 126 243 201 33 61 64
183 64 254 0 87 -56 217 -175 406 -73 116 -89 161 -100 273 l-7 69 40 31 c47
38 85 41 141 12 66 -33 121 -115 121 -177 0 -46 -14 -57 -77 -63 l-58 -5 42
-43 c34 -35 47 -42 65 -37 81 25 114 135 70 235 -42 96 -156 221 -242 265 -49
25 -134 24 -185 -3 -23 -11 -60 -41 -84 -67 -110 -119 -128 -266 -60 -500 11
-38 9 -47 -32 -140 -24 -55 -65 -131 -91 -170 -63 -95 -188 -225 -217 -225
-29 0 -54 43 -90 155 -29 89 -29 92 -35 400 -4 174 -11 328 -17 350 -13 48
-76 111 -122 123 -65 17 -140 -22 -167 -88 -9 -21 -20 -29 -50 -34 -23 -3 -56
-21 -82 -42 l-43 -37 -6 169 c-3 93 -9 187 -13 209 -27 154 -68 271 -128 372
-45 77 -150 188 -201 212 -55 26 -131 34 -188 18z m351 -955 c-24 -133 -102
-243 -223 -315 l-70 -41 -18 23 c-28 34 -23 81 16 156 41 80 85 142 175 250
37 44 80 100 96 125 l29 45 3 -93 c1 -51 -2 -119 -8 -150z m347 -10 c7 -4 29
-95 48 -202 20 -107 41 -214 47 -238 10 -42 10 -43 -53 -139 -77 -117 -112
-159 -152 -179 -26 -14 -31 -14 -44 -1 -24 24 -44 114 -50 222 -11 209 53 448
139 521 31 25 45 29 65 16z"/>
<path d="M9737 5360 c-47 -37 -65 -79 -72 -170 l-7 -85 -107 3 c-91 4 -110 1
-124 -13 -24 -23 -21 -42 8 -61 22 -14 41 -16 120 -10 75 6 95 4 95 -6 0 -7
-9 -66 -20 -131 -36 -219 -53 -450 -54 -722 -1 -224 2 -266 16 -303 58 -146
186 -201 316 -136 47 23 100 74 170 164 l20 24 36 -31 c52 -46 99 -56 172 -38
100 27 163 77 260 210 l20 29 43 -106 c54 -135 104 -216 139 -225 15 -5 53 -7
84 -7 46 1 66 7 99 30 45 31 147 143 199 219 77 112 133 280 145 435 l6 75
-54 -140 c-76 -198 -116 -271 -203 -375 -81 -96 -130 -140 -158 -140 -23 0
-51 50 -86 155 -28 85 -30 99 -31 260 0 94 -4 242 -8 330 -8 182 -16 207 -83
255 -58 42 -123 42 -171 0 -19 -16 -40 -43 -47 -59 -9 -23 -20 -30 -51 -35
-58 -9 -128 -78 -177 -174 -77 -148 -134 -343 -148 -507 -8 -96 -17 -115 -86
-182 -64 -62 -109 -83 -182 -83 -44 0 -57 4 -66 19 -21 40 -9 161 54 544 64
386 78 487 91 619 l6 66 97 6 c135 9 176 18 180 38 3 16 -10 18 -134 20 l-137
3 2 72 c3 85 -17 136 -63 164 -40 24 -77 24 -109 -1z m716 -674 c8 -8 17 -38
21 -67 4 -28 23 -132 42 -231 l35 -179 -58 -92 c-71 -111 -139 -186 -173 -190
-30 -3 -45 25 -65 120 -45 211 22 540 128 629 33 28 50 30 70 10z"/>
<path d="M4490 4843 c-25 -15 -54 -33 -65 -39 -11 -6 -29 -26 -40 -44 -18 -31
-19 -51 -16 -272 1 -131 -1 -259 -5 -283 l-6 -45 -34 30 c-19 16 -40 30 -46
30 -20 0 -85 -77 -113 -134 -33 -68 -42 -130 -25 -182 25 -79 91 -138 151
-136 38 1 86 28 94 52 10 30 21 16 35 -40 15 -64 59 -124 109 -150 86 -43 134
-17 200 110 23 44 45 80 49 80 4 0 21 -23 37 -51 17 -28 42 -57 57 -65 71 -37
173 1 277 101 37 36 70 65 73 65 9 0 34 -81 58 -183 25 -111 33 -125 77 -143
30 -13 41 -13 87 0 29 9 69 27 90 41 37 25 56 26 56 1 0 -26 39 -49 83 -49 45
0 129 32 162 62 11 11 39 22 62 26 54 9 123 54 158 105 15 22 31 38 34 35 4
-2 20 -35 35 -73 16 -38 38 -82 51 -98 20 -25 30 -29 70 -28 42 1 51 6 102 55
104 101 161 216 178 354 5 47 2 43 -38 -55 -24 -58 -57 -126 -74 -150 -48 -69
-123 -142 -141 -138 -10 2 -27 28 -41 63 -22 55 -25 79 -30 275 -5 194 -8 218
-26 242 -47 64 -119 68 -153 8 -10 -17 -28 -32 -44 -35 -15 -4 -43 -25 -64
-47 -87 -96 -156 -355 -121 -456 16 -47 4 -69 -20 -36 -37 50 -107 211 -139
322 l-36 122 18 48 c10 26 28 66 41 88 36 63 75 226 75 314 0 132 -55 286
-111 310 -59 24 -130 -41 -162 -149 l-13 -42 -22 62 c-26 72 -50 108 -86 128
-57 33 -135 -51 -165 -176 -29 -124 -26 -437 6 -606 l24 -127 -38 -55 c-48
-70 -85 -101 -137 -117 -41 -12 -41 -12 -74 26 -41 48 -84 154 -84 208 0 39 5
46 75 111 110 101 124 138 82 211 -29 51 -46 60 -92 52 -53 -10 -126 -81 -159
-156 -39 -86 -48 -157 -34 -266 11 -90 10 -92 -16 -140 -37 -69 -104 -144
-127 -144 -26 0 -47 51 -66 160 -21 117 -12 255 31 470 31 155 49 295 63 470
4 45 1 59 -14 73 -35 31 -74 31 -123 0z m879 -118 c23 -43 26 -61 24 -140 -1
-98 -34 -304 -56 -357 l-14 -33 -12 41 c-13 47 -15 112 -8 304 2 74 5 159 5
188 2 44 5 53 19 50 9 -2 28 -25 42 -53z m275 13 c14 -24 28 -65 31 -93 10
-79 -39 -411 -65 -439 -13 -13 -29 61 -30 134 -1 36 0 126 3 200 2 74 5 159 6
188 1 66 20 69 55 10z m-624 -433 c19 -23 2 -92 -33 -132 -32 -37 -105 -88
-114 -80 -2 3 -7 29 -10 59 -7 70 14 116 65 146 43 25 75 28 92 7z m439 -240
c7 -27 33 -126 58 -219 l47 -169 -28 -23 c-15 -14 -32 -22 -37 -18 -20 12
-110 207 -129 281 -11 43 -28 99 -36 125 -14 42 -14 51 0 93 9 25 33 74 54
109 l37 62 12 -95 c6 -53 16 -118 22 -146z m556 63 c3 -13 16 -79 29 -148 26
-142 27 -135 -47 -236 -53 -72 -83 -86 -98 -46 -34 89 -32 224 7 338 31 94 96
148 109 92z m-1685 -30 c32 -52 53 -133 45 -179 -9 -54 -50 -101 -84 -97 -78
9 -97 213 -26 284 32 32 41 30 65 -8z"/>
</g>
</svg>
