<?xml version="1.0" standalone="no"?>
<!DOCTYPE svg PUBLIC "-//W3C//DTD SVG 20010904//EN"
 "http://www.w3.org/TR/2001/REC-SVG-20010904/DTD/svg10.dtd">
<svg version="1.0" xmlns="http://www.w3.org/2000/svg"
 width="1250.000000pt" height="1250.000000pt" viewBox="0 0 1250.000000 1250.000000"
 preserveAspectRatio="xMidYMid meet">

<g transform="translate(0.000000,1250.000000) scale(0.100000,-0.100000)"
fill="#000000" stroke="none">
<path d="M6032 11829 c-1532 -93 -2968 -812 -3937 -1974 -612 -732 -1058
-1680 -1230 -2611 -33 -183 -34 -176 17 -172 l41 3 24 130 c174 955 598 1852
1237 2620 131 157 478 504 636 635 924 767 2004 1200 3200 1281 193 13 665 7
840 -11 1156 -116 2181 -547 3060 -1288 161 -136 496 -471 632 -632 635 -754
1054 -1637 1223 -2585 14 -76 25 -143 25 -147 0 -4 21 -8 46 -8 44 0 45 1 40
28 -3 15 -17 95 -32 177 -130 737 -461 1529 -901 2156 -1128 1611 -2982 2515
-4921 2398z"/>
<path d="M5743 11276 c-106 -12 -195 -25 -198 -28 -4 -4 -4 -30 0 -58 7 -50 7
-50 38 -46 18 3 53 8 78 11 l46 6 6 -43 c3 -24 14 -119 23 -211 l18 -168 66 7
c36 3 66 7 68 9 1 1 -8 95 -21 209 -16 143 -20 209 -13 211 6 2 41 7 79 10
l67 7 0 38 c0 80 20 77 -257 46z"/>
<path d="M6680 11288 c-1 -7 -13 -127 -29 -267 -18 -170 -24 -254 -17 -256 6
-2 37 -6 68 -8 l57 -5 6 66 c11 115 13 122 43 122 15 0 67 -5 116 -10 49 -6
90 -9 92 -8 1 2 6 26 9 54 l7 51 -73 7 c-41 4 -95 9 -122 13 l-47 6 6 51 c3
28 7 56 9 62 2 7 38 6 121 -3 65 -7 124 -11 130 -9 7 3 14 27 15 54 l4 48
-180 18 c-99 10 -188 20 -197 22 -11 3 -18 0 -18 -8z"/>
<path d="M4740 11056 c-79 -19 -104 -31 -149 -72 -50 -45 -68 -98 -50 -152 26
-83 65 -102 207 -102 96 0 111 -2 127 -20 37 -41 -17 -84 -109 -85 -34 0 -80
4 -102 8 l-41 8 -7 -52 c-4 -32 -3 -56 3 -62 6 -6 50 -13 98 -15 143 -7 255
44 295 134 22 50 18 93 -13 143 -29 48 -72 61 -193 61 -82 0 -108 3 -120 16
-46 45 7 79 125 79 l87 0 6 54 c4 30 5 55 3 57 -11 11 -121 11 -167 0z"/>
<path d="M7773 11015 c-96 -48 -143 -127 -143 -240 0 -145 86 -241 248 -276
164 -35 322 95 322 265 0 106 -57 193 -163 248 -31 16 -65 23 -127 26 -77 3
-90 1 -137 -23z m225 -114 c62 -33 83 -147 40 -211 -37 -54 -73 -75 -128 -75
-61 0 -97 24 -128 88 -32 63 -24 115 27 169 52 56 120 66 189 29z"/>
<path d="M3624 10529 l-60 -38 44 -283 c25 -156 46 -285 48 -286 6 -8 114 69
114 80 0 7 -4 30 -9 50 l-9 38 101 64 101 65 39 -31 39 -31 31 18 c18 10 46
28 63 39 l31 21 -181 127 c-99 69 -206 144 -236 166 l-55 39 -61 -38z m161
-185 c41 -31 75 -58 75 -60 0 -6 -110 -74 -119 -74 -9 0 -24 56 -36 143 -4 26
-4 47 -1 47 4 0 40 -25 81 -56z"/>
<path d="M8897 10519 c-129 -31 -209 -133 -209 -265 0 -153 123 -274 290 -282
63 -4 80 -1 127 22 135 67 189 223 122 358 -15 31 -44 71 -64 89 -73 64 -186
97 -266 78z m141 -133 c50 -26 75 -62 80 -116 6 -61 -10 -100 -54 -140 -110
-96 -267 -2 -240 145 18 92 134 153 214 111z"/>
<path d="M6165 10330 c-1676 -88 -3140 -1200 -3676 -2790 -48 -144 -129 -433
-129 -462 0 -5 20 -8 44 -8 l43 0 33 133 c126 511 368 1014 699 1452 210 278
508 574 796 791 921 694 2108 955 3249 714 1183 -251 2211 -1047 2761 -2139
110 -218 230 -543 295 -796 l38 -150 45 -3 45 -3 -14 63 c-141 615 -429 1203
-832 1698 -123 151 -455 479 -609 602 -392 311 -823 545 -1285 697 -363 119
-690 179 -1083 201 -196 10 -212 10 -420 0z"/>
<path d="M2752 9837 l-142 -142 190 -190 190 -189 45 44 c25 24 45 49 45 54 0
6 -29 40 -65 76 l-65 65 85 85 85 84 -37 38 -37 38 -86 -85 -86 -85 -44 45
-44 45 92 93 92 93 -38 37 -38 37 -142 -143z"/>
<path d="M9705 9665 c-104 -95 -191 -178 -193 -183 -1 -5 48 -61 110 -125 104
-106 118 -117 172 -132 130 -38 256 20 322 145 29 55 25 162 -8 225 -21 41
-187 234 -207 242 -3 1 -91 -76 -196 -172z m249 -46 c20 -22 41 -51 46 -65 49
-127 -111 -265 -226 -195 -17 10 -45 36 -62 58 l-32 40 112 102 c61 55 115
101 119 101 3 0 23 -18 43 -41z"/>
<path d="M6195 8703 c-600 -49 -1082 -240 -1413 -557 -132 -126 -208 -229
-278 -370 -87 -179 -113 -318 -75 -401 23 -51 89 -111 138 -124 54 -15 3563
-15 3617 0 81 23 156 128 156 221 0 98 -83 310 -177 450 -129 194 -373 397
-629 526 -376 188 -912 291 -1339 255z m520 -198 c700 -91 1251 -447 1411
-912 38 -110 41 -135 18 -157 -14 -14 -188 -16 -1769 -16 -1581 0 -1755 2
-1769 16 -9 8 -16 22 -16 31 0 41 36 148 80 238 215 438 800 757 1494 815 135
12 403 4 551 -15z"/>
<path d="M5905 8246 c-43 -19 -66 -49 -72 -94 -17 -130 165 -185 222 -66 19
40 19 56 1 99 -24 57 -95 86 -151 61z"/>
<path d="M6835 8246 c-43 -19 -66 -49 -72 -94 -17 -129 165 -186 221 -68 21
45 20 74 -4 113 -31 51 -93 72 -145 49z"/>
<path d="M5314 7866 c-122 -54 -84 -226 50 -226 43 0 90 38 106 84 30 92 -68
182 -156 142z"/>
<path d="M6373 7865 c-59 -25 -87 -98 -59 -157 58 -121 241 -68 223 64 -6 46
-29 75 -74 94 -40 17 -49 17 -90 -1z"/>
<path d="M7393 7865 c-36 -16 -73 -68 -73 -103 0 -38 30 -92 61 -107 89 -46
189 21 176 117 -6 46 -29 75 -74 94 -40 17 -49 17 -90 -1z"/>
<path d="M4520 6715 l0 -375 85 0 85 0 0 110 0 111 87 -3 86 -3 59 -107 59
-108 95 0 94 0 -80 123 -80 122 23 15 c83 54 123 145 114 256 -6 77 -38 138
-92 176 -67 46 -137 58 -347 58 l-188 0 0 -375z m410 220 c44 -23 60 -53 60
-112 0 -43 -5 -58 -27 -83 -34 -38 -79 -49 -190 -50 l-83 0 0 130 0 130 105 0
c75 0 115 -4 135 -15z"/>
<path d="M5300 6715 l0 -375 290 0 290 0 0 70 0 70 -210 0 -210 0 0 85 0 85
180 0 180 0 0 65 0 65 -177 2 -178 3 -3 83 -3 82 201 0 200 0 0 70 0 70 -280
0 -280 0 0 -375z"/>
<path d="M6000 7020 l0 -70 115 0 115 0 0 -305 0 -305 80 0 80 0 0 305 0 305
115 0 115 0 0 70 0 70 -310 0 -310 0 0 -70z"/>
<path d="M6740 6715 l0 -375 85 0 85 0 0 110 0 111 88 -3 87 -3 59 -107 60
-108 93 0 c76 0 92 3 86 13 -4 8 -38 61 -75 119 -66 101 -78 128 -59 128 19 0
73 54 93 94 26 51 35 159 18 220 -15 54 -60 111 -108 135 -63 32 -137 41 -327
41 l-185 0 0 -375z m418 215 c66 -41 78 -131 24 -191 -33 -37 -79 -48 -189
-49 l-83 0 0 130 0 130 108 0 c90 0 112 -3 140 -20z"/>
<path d="M7750 7076 c-126 -27 -220 -101 -273 -214 -28 -59 -31 -77 -31 -152
1 -106 27 -179 90 -249 85 -95 191 -136 333 -129 147 7 267 78 328 195 37 70
46 106 45 193 -2 181 -138 329 -329 360 -71 12 -93 12 -163 -4z m201 -159
c112 -59 156 -203 99 -317 -38 -74 -125 -130 -203 -130 -112 0 -217 96 -233
213 -13 89 42 191 126 233 62 32 151 32 211 1z"/>
<path d="M197 6405 c-48 -17 -66 -40 -67 -87 0 -45 30 -72 107 -94 60 -17 77
-39 47 -61 -22 -16 -64 -10 -111 18 l-33 18 -16 -30 c-8 -17 -14 -32 -12 -34
40 -34 147 -53 202 -35 45 15 66 44 66 91 0 45 -26 70 -100 94 -51 17 -76 37
-65 55 9 14 60 12 100 -4 35 -15 35 -15 51 16 19 37 13 42 -59 58 -59 12 -63
12 -110 -5z"/>
<path d="M1717 6409 c-107 -18 -166 -145 -111 -240 23 -41 93 -79 144 -79 37
0 113 30 125 50 4 6 -3 22 -16 36 -20 21 -24 22 -39 9 -24 -22 -74 -29 -101
-14 -36 19 -48 40 -49 86 0 34 5 46 31 67 36 31 63 33 105 7 32 -19 32 -19 53
3 26 28 26 32 -1 50 -33 22 -97 33 -141 25z"/>
<path d="M10400 6399 c-24 -11 -46 -22 -48 -24 -3 -3 14 -42 23 -53 2 -2 17 4
35 13 40 21 94 16 98 -8 2 -11 -24 -46 -72 -96 -56 -57 -76 -84 -76 -104 l0
-27 120 0 120 0 0 30 0 30 -67 0 -67 0 40 43 c83 87 100 128 74 177 -22 41
-110 51 -180 19z"/>
<path d="M11033 6405 c-37 -16 -50 -38 -62 -102 -27 -140 58 -243 163 -199 53
22 76 67 76 149 0 84 -19 130 -65 151 -40 19 -70 20 -112 1z m95 -75 c16 -30
10 -143 -8 -166 -19 -21 -52 -13 -67 16 -16 32 -17 121 -1 155 15 34 57 31 76
-5z"/>
<path d="M11600 6385 c0 -32 2 -35 30 -35 l30 0 0 -125 0 -125 40 0 40 0 0
160 0 160 -70 0 -70 0 0 -35z"/>
<path d="M12190 6365 l0 -55 35 0 c28 0 35 4 35 20 0 17 7 20 45 20 25 0 45
-2 45 -4 0 -2 -25 -56 -55 -121 -30 -64 -55 -119 -55 -121 0 -3 19 -4 42 -2
l42 3 57 125 c32 69 58 140 59 158 l0 32 -125 0 -125 0 0 -55z"/>
<path d="M650 6250 l0 -160 40 0 40 0 0 160 0 160 -40 0 -40 0 0 -160z"/>
<path d="M1020 6250 l0 -160 35 0 35 0 0 95 c0 52 3 95 8 95 4 -1 39 -43 77
-95 66 -89 72 -94 108 -95 l37 0 0 160 0 160 -40 0 -39 0 -3 -92 -3 -93 -70
92 c-66 87 -72 92 -107 93 l-38 0 0 -160z"/>
<path d="M2150 6250 l0 -160 125 0 125 0 0 35 0 35 -85 0 -85 0 0 30 0 30 75
0 75 0 0 30 0 30 -75 0 -75 0 0 35 0 35 85 0 85 0 0 30 0 30 -125 0 -125 0 0
-160z"/>
<path d="M4520 6100 l0 -90 685 0 685 0 0 -465 0 -465 -710 0 c-774 0 -743 2
-789 -56 -49 -63 -46 -148 9 -269 58 -128 167 -237 290 -293 105 -47 167 -51
703 -52 l497 0 0 -155 c0 -152 1 -156 25 -180 33 -34 87 -34 120 0 24 24 25
28 25 180 l0 155 45 0 45 0 0 -290 0 -291 25 -24 c30 -31 82 -33 119 -4 l26
20 0 294 0 294 818 4 c893 3 852 1 979 63 68 33 175 131 220 202 106 165 110
321 11 382 -32 20 -53 20 -1030 20 l-998 0 0 465 0 465 965 0 965 0 0 90 0 90
-1865 0 -1865 0 0 -90z m1630 -555 l0 -465 -45 0 -45 0 0 465 0 465 45 0 45 0
0 -465z m-262 -797 l-3 -143 -480 -3 c-313 -2 -502 1 -544 8 -140 24 -248 115
-301 255 l-10 25 671 0 670 0 -3 -142z m262 -3 l0 -145 -45 0 -45 0 0 145 0
145 45 0 45 0 0 -145z m2069 118 c-33 -88 -112 -179 -190 -218 -85 -44 -131
-46 -939 -43 l-765 3 -3 143 -3 142 955 0 956 0 -11 -27z"/>
<path d="M5364 5856 c-152 -38 -244 -154 -243 -306 0 -41 6 -92 13 -113 32
-87 105 -159 198 -194 60 -22 180 -21 246 1 179 61 265 261 187 435 -49 109
-151 176 -280 185 -42 3 -91 0 -121 -8z m154 -141 c75 -32 112 -86 112 -165 0
-92 -47 -158 -131 -180 -109 -30 -219 58 -219 174 0 81 33 134 105 167 49 23
84 24 133 4z"/>
<path d="M7223 5860 c-95 -19 -184 -87 -231 -175 -23 -43 -27 -62 -27 -140 0
-78 4 -97 27 -140 51 -97 152 -165 263 -180 66 -8 180 16 248 52 l52 28 3 128
3 127 -71 0 -70 0 0 -85 0 -84 -55 -16 c-83 -25 -146 -6 -203 59 -98 112 -8
296 144 296 39 0 136 -38 148 -59 13 -20 25 -12 68 45 48 64 49 62 -42 109
-80 40 -168 52 -257 35z"/>
<path d="M4520 5544 l0 -316 198 4 c188 3 200 4 246 28 63 32 88 66 94 128 6
66 -12 116 -56 152 l-36 29 26 21 c50 39 62 138 23 196 -9 14 -40 36 -68 50
-49 22 -62 24 -239 24 l-188 0 0 -316z m342 169 c22 -20 23 -51 1 -75 -13 -15
-31 -18 -100 -18 l-83 0 0 55 0 55 82 0 c62 0 86 -4 100 -17z m12 -244 c31
-25 34 -59 5 -85 -17 -15 -40 -20 -110 -22 l-89 -4 0 66 0 66 84 0 c69 0 88
-4 110 -21z"/>
<path d="M6410 5545 l0 -315 250 0 250 0 0 65 0 65 -170 0 -170 0 0 60 0 60
150 0 150 0 0 65 0 65 -150 0 -150 0 0 60 0 60 165 0 165 0 0 65 0 65 -245 0
-245 0 0 -315z"/>
<path d="M7720 5554 c-69 -168 -127 -310 -128 -315 -3 -6 28 -9 74 -7 l78 3
20 58 21 58 129 -3 130 -3 20 -57 21 -58 78 0 c70 0 78 2 73 18 -3 9 -59 150
-124 312 l-118 295 -75 3 -75 3 -124 -307z m233 31 c14 -38 28 -78 32 -87 6
-16 0 -18 -69 -18 -42 0 -76 2 -76 5 0 4 28 79 59 159 15 36 21 29 54 -59z"/>
<path d="M833 5438 c62 -365 127 -636 219 -918 551 -1689 1861 -3012 3536
-3570 1516 -504 3168 -341 4545 449 1323 760 2288 2034 2651 3501 45 181 90
408 102 516 l7 54 -41 0 c-48 0 -40 19 -77 -190 -142 -821 -498 -1640 -1005
-2315 -169 -225 -307 -383 -524 -601 -459 -458 -927 -792 -1501 -1070 -591
-286 -1209 -458 -1900 -526 -202 -20 -809 -17 -1015 5 -1149 124 -2135 540
-3015 1271 -159 132 -524 498 -659 661 -468 564 -810 1184 -1031 1865 -86 266
-175 641 -201 848 l-7 52 -44 0 -45 0 5 -32z"/>
<path d="M2345 5448 c2 -13 16 -72 30 -133 270 -1200 1071 -2217 2181 -2773
690 -346 1483 -489 2256 -407 1715 180 3134 1414 3558 3092 21 83 42 172 45
197 l7 46 -41 0 c-25 0 -43 -5 -45 -12 -2 -7 -22 -89 -45 -183 -136 -570 -399
-1103 -777 -1575 -123 -154 -422 -457 -566 -574 -550 -448 -1168 -737 -1838
-860 -419 -77 -864 -86 -1292 -26 -996 139 -1903 653 -2552 1444 -398 485
-679 1066 -816 1689 l-22 97 -44 0 c-41 0 -44 -2 -39 -22z"/>
<path d="M9630 2991 c-94 -31 -186 -116 -214 -198 -34 -100 -9 -208 65 -282
136 -134 369 -82 459 104 29 59 32 159 8 216 -22 51 -84 116 -132 141 -44 22
-145 33 -186 19z m109 -135 c72 -38 115 -128 91 -191 -26 -68 -104 -114 -167
-99 -73 17 -133 87 -133 155 0 107 117 182 209 135z"/>
<path d="M2987 2946 c-132 -36 -224 -175 -201 -303 23 -128 129 -224 264 -240
l50 -6 0 62 0 61 -33 0 c-77 0 -147 70 -147 147 0 54 20 94 63 127 47 36 88
42 142 22 52 -20 80 -55 94 -115 5 -24 12 -45 15 -48 3 -3 30 -2 60 1 l55 7
-6 37 c-26 170 -199 290 -356 248z"/>
<path d="M8818 2377 c-32 -18 -58 -37 -58 -44 0 -6 16 -95 35 -198 20 -103 34
-189 32 -191 -2 -2 -68 53 -148 122 -79 69 -149 128 -155 130 -11 5 -124 -55
-124 -66 0 -3 99 -85 220 -183 l219 -177 61 36 c33 19 60 39 60 44 0 11 -80
543 -83 552 -1 3 -28 -8 -59 -25z"/>
<path d="M3721 2164 c-72 -124 -129 -229 -126 -234 6 -10 94 -60 106 -60 4 0
22 26 40 58 18 31 33 59 35 60 1 2 23 -8 48 -23 l46 -27 0 -86 0 -87 65 -37
65 -37 -7 105 -6 104 27 0 c70 0 156 84 172 168 9 49 -12 108 -54 150 -30 30
-258 172 -276 172 -2 0 -63 -102 -135 -226z m259 32 c30 -18 61 -44 69 -57 28
-50 -14 -119 -72 -119 -37 0 -140 55 -135 73 5 19 72 137 78 136 3 0 30 -15
60 -33z"/>
<path d="M4782 1898 c-5 -18 -40 -131 -77 -251 -39 -125 -64 -222 -59 -226 10
-10 367 -121 387 -121 7 0 20 22 29 48 l15 49 -128 38 c-70 21 -133 41 -139
45 -13 8 8 100 23 100 5 0 61 -16 124 -36 63 -20 116 -34 117 -32 11 15 26 92
19 98 -4 4 -57 23 -118 41 -60 18 -111 34 -113 35 -8 5 23 87 34 91 7 2 64
-12 127 -31 63 -20 122 -36 130 -36 9 0 19 17 26 46 7 26 11 48 9 49 -2 2 -86
29 -188 60 -102 32 -190 60 -197 62 -6 3 -16 -10 -21 -29z"/>
<path d="M7808 1899 l-56 -20 85 -254 84 -253 62 20 c34 12 63 22 64 23 6 4
-164 499 -173 501 -5 1 -34 -7 -66 -17z"/>
<path d="M6986 1705 c-150 -21 -221 -34 -224 -43 -2 -7 -1 -32 2 -56 l7 -42
75 9 c41 5 77 8 79 5 3 -2 17 -94 33 -204 l28 -199 64 3 c36 2 66 5 68 6 2 2
-8 84 -22 182 -13 99 -26 193 -28 209 l-3 30 78 9 c85 9 84 8 69 86 l-7 35
-219 -30z"/>
<path d="M5812 1424 c-73 -141 -131 -258 -130 -259 2 -2 33 -5 70 -7 l67 -4
22 48 c18 38 26 47 43 43 12 -2 64 -7 117 -10 l96 -7 14 -46 15 -47 67 -9 c38
-5 70 -6 72 -4 4 4 -170 537 -177 543 -2 2 -34 6 -73 9 l-70 7 -133 -257z
m248 -79 c0 -6 -29 -9 -75 -7 -41 2 -75 6 -75 8 0 2 21 46 47 97 l46 92 29
-90 c15 -49 28 -94 28 -100z"/>
</g>
</svg>
